<?xml version="1.0" encoding="UTF-8" standalone="no"?>
<svg
   xmlns:dc="http://purl.org/dc/elements/1.1/"
   xmlns:cc="http://creativecommons.org/ns#"
   xmlns:rdf="http://www.w3.org/1999/02/22-rdf-syntax-ns#"
   xmlns:svg="http://www.w3.org/2000/svg"
   xmlns="http://www.w3.org/2000/svg"
   xmlns:sodipodi="http://sodipodi.sourceforge.net/DTD/sodipodi-0.dtd"
   xmlns:inkscape="http://www.inkscape.org/namespaces/inkscape"
   width="210mm"
   height="297mm"
   viewBox="0 0 210 297"
   version="1.1"
   id="svg8"
   inkscape:version="1.0 (4035a4fb49, 2020-05-01)"
   sodipodi:docname="pig.svg">
  <defs
     id="defs2" />
  <sodipodi:namedview
     id="base"
     pagecolor="#ffffff"
     bordercolor="#666666"
     borderopacity="1.0"
     inkscape:pageopacity="0.0"
     inkscape:pageshadow="2"
     inkscape:zoom="1.979899"
     inkscape:cx="116.01093"
     inkscape:cy="426.48652"
     inkscape:document-units="mm"
     inkscape:current-layer="layer1"
     inkscape:document-rotation="0"
     showgrid="false"
     inkscape:snap-global="false"
     inkscape:window-width="1366"
     inkscape:window-height="697"
     inkscape:window-x="-8"
     inkscape:window-y="-8"
     inkscape:window-maximized="1" />
  <metadata
     id="metadata5">
    <rdf:RDF>
      <cc:Work
         rdf:about="">
        <dc:format>image/svg+xml</dc:format>
        <dc:type
           rdf:resource="http://purl.org/dc/dcmitype/StillImage" />
        <dc:title />
      </cc:Work>
    </rdf:RDF>
  </metadata>
  <g
     inkscape:label="Layer 1"
     inkscape:groupmode="layer"
     id="layer1">
    <rect
       style="fill:#ffffff;fill-opacity:1;stroke:none;stroke-width:0.41143;stroke-miterlimit:4;stroke-dasharray:none"
       id="rect1030"
       width="32.072342"
       height="32.072342"
       x="21.071318"
       y="81.64547"
       inkscape:export-xdpi="50.68541"
       inkscape:export-ydpi="50.68541" />
    <path
       id="rect897-1-1"
       style="fill:#f0b6a1;fill-opacity:1;stroke:#000000;stroke-width:1.95024;stroke-miterlimit:4;stroke-dasharray:none"
       d="m 98.863281,320.28711 c -2.522106,0.0283 -3.736328,0.66992 -3.736328,0.66992 -9.858134,2.36595 -12.259765,6.50781 -12.259765,6.50781 0,0 10.646385,5.78393 14.195312,10.91016 1.70795,4.14788 2.331643,7.72693 1.525113,16.48354 -0.957671,7.1131 -2.184481,8.85259 -2.618867,11.63758 -0.1315,0.84309 -1.099602,7.30134 -1.099048,8.47151 0.01204,23.37221 22.179962,42.13242 45.552182,42.12612 23.37221,-0.006 45.9719,-19.56595 42.3164,-43.46258 l -1.26269,-8.2544 c -0.44725,-2.92376 -0.71845,-6.89094 -1.48193,-11.5167 -0.29504,-8.22649 2.57859,-9.47892 4.25634,-13.55345 3.54892,-5.12623 14.19727,-10.91016 14.19727,-10.91016 0,0 -2.40359,-4.1399 -12.26172,-6.50586 0,0 -6.3451,-3.35114 -20.14649,4.92969 -2.8327,2.26616 -5.05513,5.65234 -6.75195,9.06055 -5.87385,-2.9264 -12.3477,-4.44691 -18.91016,-4.44141 -6.10894,0.006 -12.14427,1.33357 -17.6914,3.89258 -1.76374,-3.8556 -4.1943,-7.87106 -7.41211,-10.44531 -7.76328,-4.65797 -13.16745,-5.636 -16.410159,-5.59961 z"
       transform="scale(0.26458333)"
       sodipodi:nodetypes="sccccsccsscccccccccss" />
    <path
       style="fill:#ffffff;fill-opacity:1;stroke:#000000;stroke-width:0.526;stroke-miterlimit:4;stroke-dasharray:none"
       id="path835"
       sodipodi:type="arc"
       sodipodi:cx="32.802544"
       sodipodi:cy="94.346657"
       sodipodi:rx="2.8804967"
       sodipodi:ry="2.8804967"
       sodipodi:start="0"
       sodipodi:end="6.2821032"
       sodipodi:open="true"
       sodipodi:arc-type="arc"
       d="m 35.68304,94.346657 a 2.8804967,2.8804967 0 0 1 -2.879717,2.880496 2.8804967,2.8804967 0 0 1 -2.881276,-2.878938 2.8804967,2.8804967 0 0 1 2.878159,-2.882054 2.8804967,2.8804967 0 0 1 2.882833,2.877379" />
    <path
       d="m 43.913032,94.1409 a 2.8804967,2.8804967 0 0 1 -2.879717,2.880496 2.8804967,2.8804967 0 0 1 -2.881276,-2.878938 2.8804967,2.8804967 0 0 1 2.878159,-2.882054 2.8804967,2.8804967 0 0 1 2.882833,2.877379"
       sodipodi:arc-type="arc"
       sodipodi:open="true"
       sodipodi:end="6.2821032"
       sodipodi:start="0"
       sodipodi:ry="2.8804967"
       sodipodi:rx="2.8804967"
       sodipodi:cy="94.1409"
       sodipodi:cx="41.032536"
       sodipodi:type="arc"
       id="path835-6"
       style="fill:#ffffff;fill-opacity:1;stroke:#000000;stroke-width:0.526;stroke-miterlimit:4;stroke-dasharray:none" />
    <path
       style="fill:#ffdfd4;fill-opacity:1;stroke:#000000;stroke-width:0.49603;stroke-miterlimit:4;stroke-dasharray:none"
       id="path835-6-9"
       sodipodi:type="arc"
       sodipodi:cx="36.88876"
       sodipodi:cy="103.09565"
       sodipodi:rx="5.5319796"
       sodipodi:ry="3.9805868"
       sodipodi:start="0"
       sodipodi:end="6.2821032"
       sodipodi:open="true"
       sodipodi:arc-type="arc"
       d="m 42.420739,103.09565 a 5.5319796,3.9805868 0 0 1 -5.530483,3.98059 5.5319796,3.9805868 0 0 1 -5.533475,-3.97844 5.5319796,3.9805868 0 0 1 5.527489,-3.982736 5.5319796,3.9805868 0 0 1 5.536466,3.976276" />
    <path
       d="m 35.986175,103.35733 a 0.92079109,1.5758607 0 0 1 -0.920542,1.57586 0.92079109,1.5758607 0 0 1 -0.92104,-1.57501 0.92079109,1.5758607 0 0 1 0.920044,-1.57671 0.92079109,1.5758607 0 0 1 0.921537,1.57416"
       sodipodi:arc-type="arc"
       sodipodi:open="true"
       sodipodi:end="6.2821032"
       sodipodi:start="0"
       sodipodi:ry="1.5758607"
       sodipodi:rx="0.92079109"
       sodipodi:cy="103.35733"
       sodipodi:cx="35.065384"
       sodipodi:type="arc"
       id="path835-2"
       style="fill:#000000;fill-opacity:1;stroke:#000000;stroke-width:0.0630984" />
    <path
       style="fill:#000000;fill-opacity:1;stroke:#000000;stroke-width:0.0630984"
       id="path835-2-1"
       sodipodi:type="arc"
       sodipodi:cx="38.978123"
       sodipodi:cy="103.35733"
       sodipodi:rx="0.92079109"
       sodipodi:ry="1.5758607"
       sodipodi:start="0"
       sodipodi:end="6.2821032"
       sodipodi:open="true"
       sodipodi:arc-type="arc"
       d="m 39.898914,103.35733 a 0.92079109,1.5758607 0 0 1 -0.920542,1.57586 0.92079109,1.5758607 0 0 1 -0.92104,-1.57501 0.92079109,1.5758607 0 0 1 0.920043,-1.57671 0.92079109,1.5758607 0 0 1 0.921538,1.57416" />
    <path
       d="m 42.335272,95.525375 a 1.5478501,1.4526746 0 0 1 -1.547431,1.452675 1.5478501,1.4526746 0 0 1 -1.548269,-1.451889 1.5478501,1.4526746 0 0 1 1.546594,-1.45346 1.5478501,1.4526746 0 0 1 1.549105,1.451102"
       sodipodi:arc-type="arc"
       sodipodi:open="true"
       sodipodi:end="6.2821032"
       sodipodi:start="0"
       sodipodi:ry="1.4526746"
       sodipodi:rx="1.5478501"
       sodipodi:cy="95.525375"
       sodipodi:cx="40.787422"
       sodipodi:type="arc"
       id="path835-2-1-2"
       style="fill:#000000;fill-opacity:1;stroke:#000000;stroke-width:0.0785467" />
    <path
       style="fill:#000000;fill-opacity:1;stroke:#000000;stroke-width:0.0785466"
       id="path835-2-1-2-2"
       sodipodi:type="arc"
       sodipodi:cx="-32.97842"
       sodipodi:cy="95.684677"
       sodipodi:rx="1.5478503"
       sodipodi:ry="1.4526746"
       sodipodi:start="0"
       sodipodi:end="6.2821032"
       sodipodi:open="true"
       sodipodi:arc-type="arc"
       d="m -31.43057,95.684677 a 1.5478503,1.4526746 0 0 1 -1.547432,1.452675 1.5478503,1.4526746 0 0 1 -1.548268,-1.451889 1.5478503,1.4526746 0 0 1 1.546594,-1.45346 1.5478503,1.4526746 0 0 1 1.549105,1.451102"
       transform="scale(-1,1)" />
  </g>
</svg>
